{
  "accessors": [
    {
      "bufferView": 2,
      "componentType": 5126,
      "count": 40322,
      "max": [
        25.873947143554688,
        55.72210693359375,
        0.2102815955877304
      ],
      "min": [
        -25.97171401977539,
        -12.926822662353516,
        -100.75873565673828
      ],
      "type": "VEC3"
    },
    {
      "bufferView": 2,
      "byteOffset": 483864,
      "componentType": 5126,
      "count": 40322,
      "max": [
        1.0,
        0.9999957084655762,
        1.0
      ],
      "min": [
        -1.0,
        -1.0,
        -0.9999819993972778
      ],
      "type": "VEC3"
    },
    {
      "bufferView": 1,
      "componentType": 5126,
      "count": 40322,
      "max": [
        1.0,
        1.0
      ],
      "min": [
        0.0,
        0.0
      ],
      "type": "VEC2"
    },
    {
      "bufferView": 0,
      "componentType": 5125,
      "count": 235008,
      "type": "SCALAR"
    },
    {
      "bufferView": 2,
      "byteOffset": 967728,
      "componentType": 5126,
      "count": 9994,
      "max": [
        9.190194129943848,
        14.382341384887695,
        -93.98753356933594
      ],
      "min": [
        -9.132407188415527,
        -4.937300205230713,
        -105.25630950927734
      ],
      "type": "VEC3"
    },
    {
      "bufferView": 2,
      "byteOffset": 1087656,
      "componentType": 5126,
      "count": 9994,
      "max": [
        0.9999775886535645,
        0.9999948740005493,
        0.9993844032287598
      ],
      "min": [
        -0.9999966621398926,
        -0.9999982118606567,
        -0.9998478889465332
      ],
      "type": "VEC3"
    },
    {
      "bufferView": 1,
      "byteOffset": 322576,
      "componentType": 5126,
      "count": 9994,
      "max": [
        1.0,
        1.0
      ],
      "min": [
        0.0,
        0.0
      ],
      "type": "VEC2"
    },
    {
      "bufferView": 0,
      "byteOffset": 940032,
      "componentType": 5125,
      "count": 55296,
      "type": "SCALAR"
    },
    {
      "bufferView": 2,
      "byteOffset": 1207584,
      "componentType": 5126,
      "count": 57212,
      "max": [
        26.50558853149414,
        50.05017852783203,
        1.6086939573287964
      ],
      "min": [
        -26.607927322387695,
        -56.231201171875,
        -96.3712158203125
      ],
      "type": "VEC3"
    },
    {
      "bufferView": 2,
      "byteOffset": 1894128,
      "componentType": 5126,
      "count": 57212,
      "max": [
        1.0,
        0.9999962449073792,
        0.9999978542327881
      ],
      "min": [
        -1.0,
        -0.9999996423721313,
        -0.9999922513961792
      ],
      "type": "VEC3"
    },
    {
      "bufferView": 1,
      "byteOffset": 402528,
      "componentType": 5126,
      "count": 57212,
      "max": [
        1.0,
        1.0
      ],
      "min": [
        0.0,
        0.0
      ],
      "type": "VEC2"
    },
    {
      "bufferView": 0,
      "byteOffset": 1161216,
      "componentType": 5125,
      "count": 331194,
      "type": "SCALAR"
    },
    {
      "bufferView": 2,
      "byteOffset": 2580672,
      "componentType": 5126,
      "count": 21534,
      "max": [
        28.677017211914063,
        31.666784286499023,
        6.297502517700195
      ],
      "min": [
        -28.479543685913086,
        -31.863710403442383,
        -11.373663902282715
      ],
      "type": "VEC3"
    },
    {
      "bufferView": 2,
      "byteOffset": 2839080,
      "componentType": 5126,
      "count": 21534,
      "max": [
        1.0,
        1.0,
        1.0
      ],
      "min": [
        -1.0,
        -1.0,
        -1.0
      ],
      "type": "VEC3"
    },
    {
      "bufferView": 1,
      "byteOffset": 860224,
      "componentType": 5126,
      "count": 21534,
      "max": [
        1.0004172325134277,
        1.000388503074646
      ],
      "min": [
        0.0,
        0.0
      ],
      "type": "VEC2"
    },
    {
      "bufferView": 0,
      "byteOffset": 2485992,
      "componentType": 5125,
      "count": 119808,
      "type": "SCALAR"
    },
    {
      "bufferView": 2,
      "byteOffset": 3097488,
      "componentType": 5126,
      "count": 3937,
      "max": [
        24.52981948852539,
        28.158885955810547,
        6.009824752807617
      ],
      "min": [
        -24.52981948852539,
        -28.158885955810547,
        5.023744583129883
      ],
      "type": "VEC3"
    },
    {
      "bufferView": 2,
      "byteOffset": 3144732,
      "componentType": 5126,
      "count": 3937,
      "max": [
        1.0,
        1.0,
        1.0
      ],
      "min": [
        -1.0,
        -1.0,
        -7.128010111046024e-06
      ],
      "type": "VEC3"
    },
    {
      "bufferView": 1,
      "byteOffset": 1032496,
      "componentType": 5126,
      "count": 3937,
      "max": [
        0.975538969039917,
        0.9954099059104919
      ],
      "min": [
        0.024461571127176285,
        0.004590153694152832
      ],
      "type": "VEC2"
    },
    {
      "bufferView": 0,
      "byteOffset": 2965224,
      "componentType": 5125,
      "count": 23040,
      "type": "SCALAR"
    },
    {
      "bufferView": 2,
      "byteOffset": 3191976,
      "componentType": 5126,
      "count": 3264,
      "max": [
        26.14358901977539,
        29.795902252197266,
        6.447107315063477
      ],
      "min": [
        -26.06949234008789,
        -29.795902252197266,
        5.925630569458008
      ],
      "type": "VEC3"
    },
    {
      "bufferView": 2,
      "byteOffset": 3231144,
      "componentType": 5126,
      "count": 3264,
      "max": [
        1.0,
        1.0,
        0.9999774694442749
      ],
      "min": [
        -1.0,
        -1.0,
        -7.128010111046024e-06
      ],
      "type": "VEC3"
    },
    {
      "bufferView": 1,
      "byteOffset": 1063992,
      "componentType": 5126,
      "count": 3264,
      "max": [
        0.995986819267273,
        0.9992469549179077
      ],
      "min": [
        0.004013226367533207,
        0.0007530450820922852
      ],
      "type": "VEC2"
    },
    {
      "bufferView": 0,
      "byteOffset": 3057384,
      "componentType": 5125,
      "count": 18432,
      "type": "SCALAR"
    },
    {
      "bufferView": 2,
      "byteOffset": 3270312,
      "componentType": 5126,
      "count": 2401,
      "max": [
        24.52981948852539,
        28.158885955810547,
        7.182494640350342
      ],
      "min": [
        -24.52981948852539,
        -28.158885955810547,
        6.408188819885254
      ],
      "type": "VEC3"
    },
    {
      "bufferView": 2,
      "byteOffset": 3299124,
      "componentType": 5126,
      "count": 2401,
      "max": [
        0.08808060735464096,
        0.0442768894135952,
        1.0
      ],
      "min": [
        -0.08805680274963379,
        -0.0442768894135952,
        0.9961117506027222
      ],
      "type": "VEC3"
    },
    {
      "bufferView": 1,
      "byteOffset": 1090104,
      "componentType": 5126,
      "count": 2401,
      "max": [
        0.975538969039917,
        0.9954099059104919
      ],
      "min": [
        0.024461569264531136,
        0.004590153694152832
      ],
      "type": "VEC2"
    },
    {
      "bufferView": 0,
      "byteOffset": 3131112,
      "componentType": 5125,
      "count": 13824,
      "type": "SCALAR"
    },
    {
      "bufferView": 2,
      "byteOffset": 3327936,
      "componentType": 5126,
      "count": 29769,
      "max": [
        10.703001022338867,
        5.347349643707275,
        5.345830917358398
      ],
      "min": [
        5.569230079650879,
        -5.347349643707275,
        -5.345830917358398
      ],
      "type": "VEC3"
    },
    {
      "bufferView": 2,
      "byteOffset": 3685164,
      "componentType": 5126,
      "count": 29769,
      "max": [
        1.0,
        1.0,
        1.0
      ],
      "min": [
        -3.7152312870603055e-07,
        -1.0,
        -1.0
      ],
      "type": "VEC3"
    },
    {
      "bufferView": 1,
      "byteOffset": 1109312,
      "componentType": 5126,
      "count": 29769,
      "max": [
        0.9987797737121582,
        0.9992048740386963
      ],
      "min": [
        -0.002245690207928419,
        -0.002508401870727539
      ],
      "type": "VEC2"
    },
    {
      "bufferView": 0,
      "byteOffset": 3186408,
      "componentType": 5125,
      "count": 161280,
      "type": "SCALAR"
    },
    {
      "bufferView": 2,
      "byteOffset": 4042392,
      "componentType": 5126,
      "count": 5040,
      "max": [
        10.703001022338867,
        4.262068271636963,
        4.266364097595215
      ],
      "min": [
        10.702999114990234,
        -4.262068271636963,
        -4.266364097595215
      ],
      "type": "VEC3"
    },
    {
      "bufferView": 2,
      "byteOffset": 4102872,
      "componentType": 5126,
      "count": 5040,
      "max": [
        1.0,
        1.8172020645579323e-05,
        1.8154292774852365e-05
      ],
      "min": [
        1.0,
        -1.8172020645579323e-05,
        -1.8154292774852365e-05
      ],
      "type": "VEC3"
    },
    {
      "bufferView": 1,
      "byteOffset": 1347464,
      "componentType": 5126,
      "count": 5040,
      "max": [
        0.8859657049179077,
        0.8863548040390015
      ],
      "min": [
        0.11403423547744751,
        0.11364531517028809
      ],
      "type": "VEC2"
    },
    {
      "bufferView": 0,
      "byteOffset": 3831528,
      "componentType": 5125,
      "count": 26880,
      "type": "SCALAR"
    },
    {
      "bufferView": 2,
      "byteOffset": 4163352,
      "componentType": 5126,
      "count": 163,
      "max": [
        8.3202543258667,
        12.253464698791504,
        -0.0
      ],
      "min": [
        1.0169199705123901,
        -0.20170313119888306,
        -0.0
      ],
      "type": "VEC3"
    },
    {
      "bufferView": 2,
      "byteOffset": 4165308,
      "componentType": 5126,
      "count": 163,
      "max": [
        0.0,
        0.0,
        1.0
      ],
      "min": [
        0.0,
        0.0,
        1.0
      ],
      "type": "VEC3"
    },
    {
      "bufferView": 1,
      "byteOffset": 1387784,
      "componentType": 5126,
      "count": 163,
      "max": [
        0.5863697528839111,
        1.0
      ],
      "min": [
        0.0,
        0.0
      ],
      "type": "VEC2"
    },
    {
      "bufferView": 0,
      "byteOffset": 3939048,
      "componentType": 5125,
      "count": 483,
      "type": "SCALAR"
    },
    {
      "bufferView": 2,
      "byteOffset": 4167264,
      "componentType": 5126,
      "count": 800,
      "max": [
        8.43791389465332,
        12.253464698791504,
        -0.0
      ],
      "min": [
        0.7900038957595825,
        -0.21010741591453552,
        -0.009999999776482582
      ],
      "type": "VEC3"
    },
    {
      "bufferView": 2,
      "byteOffset": 4176864,
      "componentType": 5126,
      "count": 800,
      "max": [
        0.9999986290931702,
        0.9999837875366211,
        1.0
      ],
      "min": [
        -1.0,
        -1.0,
        -1.0
      ],
      "type": "VEC3"
    },
    {
      "bufferView": 1,
      "byteOffset": 1389088,
      "componentType": 5126,
      "count": 800,
      "max": [
        1.0,
        1.0
      ],
      "min": [
        0.0,
        0.0
      ],
      "type": "VEC2"
    },
    {
      "bufferView": 0,
      "byteOffset": 3940980,
      "componentType": 5125,
      "count": 2364,
      "type": "SCALAR"
    },
    {
      "bufferView": 2,
      "byteOffset": 4186464,
      "componentType": 5126,
      "count": 171,
      "max": [
        7.483154296875,
        8.887575149536133,
        0.0010000000474974513
      ],
      "min": [
        -7.483154296875,
        -8.887575149536133,
        0.0010000000474974513
      ],
      "type": "VEC3"
    },
    {
      "bufferView": 2,
      "byteOffset": 4188516,
      "componentType": 5126,
      "count": 171,
      "max": [
        0.0,
        0.0,
        1.0
      ],
      "min": [
        0.0,
        0.0,
        1.0
      ],
      "type": "VEC3"
    },
    {
      "bufferView": 1,
      "byteOffset": 1395488,
      "componentType": 5126,
      "count": 171,
      "max": [
        1.0,
        1.0
      ],
      "min": [
        0.0,
        0.0
      ],
      "type": "VEC2"
    },
    {
      "bufferView": 0,
      "byteOffset": 3950436,
      "componentType": 5125,
      "count": 501,
      "type": "SCALAR"
    }
  ],
  "asset": {
    "extras": {
      "author": "basharnazzal (https://sketchfab.com/basharnazzal)",
      "license": "CC-BY-4.0 (http://creativecommons.org/licenses/by/4.0/)",
      "source": "https://sketchfab.com/3d-models/apple-watch-series-9-3d43ceaf6e494131997f39c1c77d8b87",
      "title": "apple watch Series 9"
    },
    "generator": "Sketchfab-16.12.0",
    "version": "2.0"
  },
  "bufferViews": [
    {
      "buffer": 0,
      "byteLength": 3952440,
      "name": "floatBufferViews",
      "target": 34963
    },
    {
      "buffer": 0,
      "byteLength": 1396856,
      "byteOffset": 3952440,
      "byteStride": 8,
      "name": "floatBufferViews",
      "target": 34962
    },
    {
      "buffer": 0,
      "byteLength": 4190568,
      "byteOffset": 5349296,
      "byteStride": 12,
      "name": "floatBufferViews",
      "target": 34962
    }
  ],
  "buffers": [
    {
      "byteLength": 9539864,
      "uri": "gltf.bin"
    }
  ],
  "extensionsUsed": [
    "KHR_materials_specular",
    "KHR_materials_transmission"
  ],
  "materials": [
    {
      "doubleSided": true,
      "name": "Mat.4",
      "pbrMetallicRoughness": {
        "baseColorFactor": [
          0.018779360342068577,
          0.037775210106761936,
          0.06725368186183119,
          1.0
        ],
        "metallicFactor": 0.22400068266874718
      }
    },
    {
      "doubleSided": true,
      "extensions": {
        "KHR_materials_specular": {
          "specularColorFactor": [
            1.0,
            1.0,
            1.0
          ],
          "specularFactor": 0.7481927563969718
        }
      },
      "name": "logo.1",
      "pbrMetallicRoughness": {
        "baseColorFactor": [
          0.3051865071596423,
          0.3051865071596423,
          0.3051865071596423,
          1.0
        ],
        "roughnessFactor": 0.2518072436030282
      }
    },
    {
      "doubleSided": true,
      "name": "Mat.2",
      "pbrMetallicRoughness": {
        "baseColorFactor": [
          0.21815952230455524,
          0.21815952230455524,
          0.21815952230455524,
          1.0
        ],
        "roughnessFactor": 0.26666747936755614
      }
    },
    {
      "doubleSided": true,
      "name": "material",
      "pbrMetallicRoughness": {
        "baseColorFactor": [
          0.8,
          0.8,
          0.8,
          1.0
        ],
        "metallicFactor": 0.0,
        "roughnessFactor": 0.9524317153998911
      }
    },
    {
      "doubleSided": true,
      "name": "Mat.1",
      "pbrMetallicRoughness": {
        "baseColorFactor": [
          0.04489504918001053,
          0.04489504918001053,
          0.04489504918001053,
          1.0
        ],
        "metallicFactor": 0.0,
        "roughnessFactor": 0.0
      }
    },
    {
      "alphaMode": "BLEND",
      "doubleSided": true,
      "extensions": {
        "KHR_materials_transmission": {
          "transmissionFactor": 0.056759030122758514
        }
      },
      "name": "Mat.3",
      "pbrMetallicRoughness": {
        "baseColorFactor": [
          0.005037306823704063,
          0.005037306823704063,
          0.005037306823704063,
          0.9432409698772415
        ],
        "metallicFactor": 0.0,
        "roughnessFactor": 0.0
      }
    },
    {
      "doubleSided": true,
      "name": "Mat.2_0",
      "pbrMetallicRoughness": {
        "baseColorFactor": [
          0.7665614189803083,
          0.01102086239008149,
          0.019194913136729105,
          1.0
        ],
        "roughnessFactor": 0.9291386529836412
      }
    },
    {
      "doubleSided": true,
      "emissiveFactor": [
        0.03364882995082061,
        0.026040748040051704,
        0.026040748040051704
      ],
      "name": "logo",
      "pbrMetallicRoughness": {
        "baseColorFactor": [
          0.8014945267390894,
          0.7934930830862077,
          0.7934930830862077,
          1.0
        ],
        "metallicFactor": 0.8700978898221403,
        "roughnessFactor": 0.44685545708329777
      }
    }
  ],
  "meshes": [
    {
      "name": "belt_up_s_Mat.4_0",
      "primitives": [
        {
          "attributes": {
            "NORMAL": 1,
            "POSITION": 0,
            "TEXCOORD_0": 2
          },
          "indices": 3,
          "material": 0,
          "mode": 4
        }
      ]
    },
    {
      "name": "belt_up_s_logo.1_0",
      "primitives": [
        {
          "attributes": {
            "NORMAL": 5,
            "POSITION": 4,
            "TEXCOORD_0": 6
          },
          "indices": 7,
          "material": 1,
          "mode": 4
        }
      ]
    },
    {
      "name": "belt_down_s_Mat.4_0",
      "primitives": [
        {
          "attributes": {
            "NORMAL": 9,
            "POSITION": 8,
            "TEXCOORD_0": 10
          },
          "indices": 11,
          "material": 0,
          "mode": 4
        }
      ]
    },
    {
      "name": "base_Mat.2_0",
      "primitives": [
        {
          "attributes": {
            "NORMAL": 13,
            "POSITION": 12,
            "TEXCOORD_0": 14
          },
          "indices": 15,
          "material": 2,
          "mode": 4
        }
      ]
    },
    {
      "name": "base_Mat_0",
      "primitives": [
        {
          "attributes": {
            "NORMAL": 17,
            "POSITION": 16,
            "TEXCOORD_0": 18
          },
          "indices": 19,
          "material": 3,
          "mode": 4
        }
      ]
    },
    {
      "name": "base_Mat.1_0",
      "primitives": [
        {
          "attributes": {
            "NORMAL": 21,
            "POSITION": 20,
            "TEXCOORD_0": 22
          },
          "indices": 23,
          "material": 4,
          "mode": 4
        }
      ]
    },
    {
      "name": "screen_Mat.3_0",
      "primitives": [
        {
          "attributes": {
            "NORMAL": 25,
            "POSITION": 24,
            "TEXCOORD_0": 26
          },
          "indices": 27,
          "material": 5,
          "mode": 4
        }
      ]
    },
    {
      "name": "rolling_Mat.2_0",
      "primitives": [
        {
          "attributes": {
            "NORMAL": 29,
            "POSITION": 28,
            "TEXCOORD_0": 30
          },
          "indices": 31,
          "material": 2,
          "mode": 4
        }
      ]
    },
    {
      "name": "rolling_Mat.2_0",
      "primitives": [
        {
          "attributes": {
            "NORMAL": 33,
            "POSITION": 32,
            "TEXCOORD_0": 34
          },
          "indices": 35,
          "material": 6,
          "mode": 4
        }
      ]
    },
    {
      "name": "S_logo_0",
      "primitives": [
        {
          "attributes": {
            "NORMAL": 37,
            "POSITION": 36,
            "TEXCOORD_0": 38
          },
          "indices": 39,
          "material": 7,
          "mode": 4
        }
      ]
    },
    {
      "name": "9_logo_0",
      "primitives": [
        {
          "attributes": {
            "NORMAL": 41,
            "POSITION": 40,
            "TEXCOORD_0": 42
          },
          "indices": 43,
          "material": 7,
          "mode": 4
        }
      ]
    },
    {
      "name": "logo_logo_0",
      "primitives": [
        {
          "attributes": {
            "NORMAL": 45,
            "POSITION": 44,
            "TEXCOORD_0": 46
          },
          "indices": 47,
          "material": 7,
          "mode": 4
        }
      ]
    }
  ],
  "nodes": [
    {
      "children": [
        1
      ],
      "matrix": [
        1.0,
        0.0,
        0.0,
        0.0,
        0.0,
        2.220446049250313e-16,
        -1.0,
        0.0,
        0.0,
        1.0,
        2.220446049250313e-16,
        0.0,
        0.0,
        0.0,
        0.0,
        1.0
      ],
      "name": "Sketchfab_model"
    },
    {
      "children": [
        2
      ],
      "matrix": [
        0.009999999776482582,
        0.0,
        0.0,
        0.0,
        0.0,
        0.0,
        0.009999999776482582,
        0.0,
        0.0,
        -0.009999999776482582,
        0.0,
        0.0,
        0.0,
        0.0,
        0.0,
        1.0
      ],
      "name": "52408b35ca0147e1995dbaa38bf8fccf.fbx"
    },
    {
      "children": [
        3,
        5,
        8,
        10,
        14,
        16,
        19,
        21,
        23
      ],
      "name": "RootNode"
    },
    {
      "children": [
        4
      ],
      "matrix": [
        -0.6667539179723689,
        -0.3329841223496841,
        -0.6667539179723695,
        0.0,
        -0.23545533094091287,
        0.9429324335619231,
        -0.23545533094091242,
        0.0,
        0.7071067811865474,
        4.0245584642661925e-16,
        -0.707106781186547,
        0.0,
        181.7548828125,
        86.27391052246094,
        143.14915466308594,
        1.0
      ],
      "name": "CINEMA_4D_Editor"
    },
    {
      "name": "Object_4"
    },
    {
      "children": [
        6,
        7
      ],
      "name": "belt_up_s"
    },
    {
      "mesh": 0,
      "name": "belt_up_s_Mat.4_0"
    },
    {
      "mesh": 1,
      "name": "belt_up_s_logo.1_0"
    },
    {
      "children": [
        9
      ],
      "name": "belt_down_s"
    },
    {
      "mesh": 2,
      "name": "belt_down_s_Mat.4_0"
    },
    {
      "children": [
        11,
        12,
        13
      ],
      "name": "base"
    },
    {
      "mesh": 3,
      "name": "base_Mat.2_0"
    },
    {
      "mesh": 4,
      "name": "base_Mat_0"
    },
    {
      "mesh": 5,
      "name": "base_Mat.1_0"
    },
    {
      "children": [
        15
      ],
      "name": "screen"
    },
    {
      "mesh": 6,
      "name": "screen_Mat.3_0"
    },
    {
      "children": [
        17,
        18
      ],
      "matrix": [
        1.0,
        0.0,
        0.0,
        0.0,
        0.0,
        1.0,
        0.0,
        0.0,
        0.0,
        0.0,
        1.0,
        0.0,
        19.328699111938477,
        12.061211585998535,
        0.0,
        1.0
      ],
      "name": "rolling"
    },
    {
      "mesh": 7,
      "name": "rolling_Mat.2_0"
    },
    {
      "mesh": 8,
      "name": "rolling_Mat.2_0"
    },
    {
      "children": [
        20
      ],
      "matrix": [
        1.0,
        0.0,
        0.0,
        0.0,
        0.0,
        1.0,
        0.0,
        0.0,
        0.0,
        0.0,
        1.0,
        0.0,
        -0.8990209102630615,
        -7.154863357543945,
        5.5345001220703125,
        1.0
      ],
      "name": "S"
    },
    {
      "mesh": 9,
      "name": "S_logo_0"
    },
    {
      "children": [
        22
      ],
      "matrix": [
        1.0,
        0.0,
        0.0,
        0.0,
        0.0,
        1.0,
        0.0,
        0.0,
        0.0,
        0.0,
        1.0,
        0.0,
        8.244853973388672,
        -7.154863357543945,
        5.5345001220703125,
        1.0
      ],
      "name": "9"
    },
    {
      "mesh": 10,
      "name": "9_logo_0"
    },
    {
      "children": [
        24
      ],
      "matrix": [
        1.0,
        0.0,
        2.4492935982947064e-16,
        0.0,
        0.0,
        1.0,
        0.0,
        0.0,
        -2.4492935982947064e-16,
        0.0,
        1.0,
        0.0,
        -8.740665435791016,
        1.3424631357192993,
        5.5345001220703125,
        1.0
      ],
      "name": "logo"
    },
    {
      "mesh": 11,
      "name": "logo_logo_0"
    }
  ],
  "scene": 0,
  "scenes": [
    {
      "name": "Sketchfab_Scene",
      "nodes": [
        0
      ]
    }
  ]
}
